<svg width="80" height="80" viewBox="0 0 80 80" fill="none" xmlns="http://www.w3.org/2000/svg">
<path d="M66.6654 26.6667H49.9987V46.6667H6.66536V56.6667H9.9987C9.9987 59.3188 11.0523 61.8624 12.9276 63.7377C14.803 65.6131 17.3465 66.6667 19.9987 66.6667C22.6509 66.6667 25.1944 65.6131 27.0698 63.7377C28.9451 61.8624 29.9987 59.3188 29.9987 56.6667H49.9987C49.9987 59.3188 51.0523 61.8624 52.9276 63.7377C54.803 65.6131 57.3465 66.6667 59.9987 66.6667C62.6509 66.6667 65.1944 65.6131 67.0698 63.7377C68.9451 61.8624 69.9987 59.3188 69.9987 56.6667H76.6654V40L66.6654 26.6667ZM19.9987 61.6667C18.6726 61.6667 17.4008 61.1399 16.4632 60.2022C15.5255 59.2645 14.9987 57.9928 14.9987 56.6667C14.9987 55.3406 15.5255 54.0688 16.4632 53.1311C17.4008 52.1935 18.6726 51.6667 19.9987 51.6667C21.3248 51.6667 22.5965 52.1935 23.5342 53.1311C24.4719 54.0688 24.9987 55.3406 24.9987 56.6667C24.9987 57.9928 24.4719 59.2645 23.5342 60.2022C22.5965 61.1399 21.3248 61.6667 19.9987 61.6667ZM59.9987 61.6667C58.6726 61.6667 57.4008 61.1399 56.4632 60.2022C55.5255 59.2645 54.9987 57.9928 54.9987 56.6667C54.9987 55.3406 55.5255 54.0688 56.4632 53.1311C57.4008 52.1935 58.6726 51.6667 59.9987 51.6667C61.3248 51.6667 62.5965 52.1935 63.5342 53.1311C64.4719 54.0688 64.9987 55.3406 64.9987 56.6667C64.9987 57.9928 64.4719 59.2645 63.5342 60.2022C62.5965 61.1399 61.3248 61.6667 59.9987 61.6667ZM56.6654 40V31.6667H64.9987L71.532 40H56.6654ZM59.9987 23.3333H46.6654V43.3333H9.9987L5.23203 26.6667H3.33203V20H43.332L46.6654 16.6667H59.9987V23.3333Z" fill="#184D42"/>
</svg>
