<svg width="80" height="80" viewBox="0 0 80 80" fill="none" xmlns="http://www.w3.org/2000/svg">
<path d="M38.3315 55C42.0359 55 45.1837 53.7033 47.7748 51.11C50.3681 48.5189 51.6648 45.3711 51.6648 41.6667V28.3333H38.3315C34.627 28.3333 31.4792 29.63 28.8881 32.2233C26.2948 34.8144 24.9981 37.9622 24.9981 41.6667C24.9981 43.2 25.2137 44.6756 25.6448 46.0933C26.0759 47.5111 26.787 48.7878 27.7781 49.9233L25.4848 52.1567C25.1292 52.51 24.9515 52.9022 24.9515 53.3333C24.9515 53.7644 25.1292 54.1578 25.4848 54.5133C25.8403 54.8689 26.2337 55.0467 26.6648 55.0467C27.0959 55.0467 27.4892 54.8689 27.8448 54.5133L30.0781 52.2167C31.2559 53.1656 32.5537 53.8667 33.9715 54.32C35.3915 54.7733 36.8448 55 38.3315 55ZM39.9981 71.9233L29.9848 64.09L17.4348 62.5633L15.9115 50.0133L8.07812 40L15.9115 29.9867L17.4348 17.4367L29.9848 15.9133L39.9981 8.08L50.0115 15.9133L62.5615 17.4367L64.0848 29.9867L71.9181 40L64.0848 50.0133L62.5615 62.5633L50.0115 64.0867L39.9981 71.9233ZM41.1781 41.18C41.5337 40.8111 41.7115 40.4144 41.7115 39.99C41.7115 39.5656 41.5337 39.1767 41.1781 38.8233C40.8226 38.47 40.4326 38.2922 40.0081 38.29C39.5837 38.2878 39.187 38.4656 38.8181 38.8233L31.3315 46.3033C30.9648 46.6722 30.7815 47.0689 30.7815 47.4933C30.7815 47.9178 30.9648 48.3144 31.3315 48.6833C31.6981 49.0522 32.1048 49.2256 32.5515 49.2033C32.9981 49.1811 33.3781 49.0078 33.6915 48.6833L41.1781 41.18Z" fill="#FAF7E8"/>
</svg>
