<svg width="80" height="80" viewBox="0 0 80 80" fill="none" xmlns="http://www.w3.org/2000/svg">
<rect x="1" y="1" width="78" height="78" rx="39" stroke="white" stroke-width="2"/>
<path d="M40 10C33.3696 10 27.0107 12.4443 22.3223 16.7951C17.6339 21.146 15 27.047 15 33.2C15 52.5231 40 70 40 70C40 70 65 52.5231 65 33.2C65 27.047 62.3661 21.146 57.6777 16.7951C52.9893 12.4443 46.6304 10 40 10ZM40.116 11.2308C43.7467 12.9231 49.7314 17.0154 51.8037 22.6615C50.1459 27.8462 44.5259 32.5538 40.1989 34.3538V28.4615C36.6844 29.5385 29.4397 36.2923 29.0418 39.7692C29.937 43.5077 37.0822 49.9846 40.0663 50.6923C40.0663 50.6923 39.9834 45.4154 40.0663 45.1846C52.2845 45.1846 58.5013 34.6 58.435 28.0769C58.3687 21.5538 55.4841 14.8615 49.6154 11.7692C53.5732 13.6362 56.9029 16.4756 59.2415 19.9778C61.5801 23.48 62.838 27.5108 62.878 31.6308C62.878 34.4152 62.2857 37.1723 61.1349 39.7438C59.9842 42.3153 58.2977 44.6507 56.1722 46.6161C54.0467 48.5814 51.524 50.138 48.7488 51.1965C45.9736 52.2551 43.0005 52.7947 40 52.7846H38.3422C15.431 49.4 18.2328 18.9385 40 17.3231L40.116 11.2308Z" stroke="white" stroke-width="2" stroke-linecap="round" stroke-linejoin="round"/>
</svg>
