<svg width="80" height="80" viewBox="0 0 80 80" fill="none" xmlns="http://www.w3.org/2000/svg">
<g clip-path="url(#clip0_1741_1234)">
<path fill-rule="evenodd" clip-rule="evenodd" d="M39.9987 6.66667C38.2306 6.66667 36.5349 7.36905 35.2847 8.61929C34.0344 9.86954 33.332 11.5652 33.332 13.3333V16.6667H29.9987C28.4462 16.6667 26.9151 17.0281 25.5266 17.7224C24.138 18.4167 22.9302 19.4247 21.9987 20.6667L15.332 29.5567C14.0338 31.2876 13.332 33.393 13.332 35.5567V63.3333C13.332 65.9855 14.3856 68.529 16.261 70.4044C18.1363 72.2798 20.6799 73.3333 23.332 73.3333H56.6654C59.3175 73.3333 61.8611 72.2798 63.7364 70.4044C65.6118 68.529 66.6654 65.9855 66.6654 63.3333V26.6667C66.6654 24.0145 65.6118 21.471 63.7364 19.5956C61.8611 17.7202 59.3175 16.6667 56.6654 16.6667V13.3333C56.6654 11.5652 55.963 9.86954 54.7127 8.61929C53.4625 7.36905 51.7668 6.66667 49.9987 6.66667H39.9987ZM49.9987 16.6667V13.3333H39.9987V16.6667H49.9987ZM33.332 40C33.332 39.1159 32.9808 38.2681 32.3557 37.643C31.7306 37.0179 30.8828 36.6667 29.9987 36.6667C29.1146 36.6667 28.2668 37.0179 27.6417 37.643C27.0166 38.2681 26.6654 39.1159 26.6654 40V56.6667C26.6654 57.5507 27.0166 58.3986 27.6417 59.0237C28.2668 59.6488 29.1146 60 29.9987 60C30.8828 60 31.7306 59.6488 32.3557 59.0237C32.9808 58.3986 33.332 57.5507 33.332 56.6667V40Z" fill="#FAF7E8"/>
</g>
<defs>
<clipPath id="clip0_1741_1234">
<rect width="80" height="80" fill="white"/>
</clipPath>
</defs>
</svg>
