<svg width="80" height="80" viewBox="0 0 80 80" fill="none" xmlns="http://www.w3.org/2000/svg">
<path d="M72.7338 51.4L64.4005 65.8333C62.7672 68.7 59.7339 70.2 56.6672 70H50.0005V76.6667L41.6672 61.6667L50.0005 46.6667V53.3333H59.4005L52.0005 40.5L66.4339 32.1667L72.4339 42.5667C74.1672 45.1333 74.4005 48.5667 72.7338 51.4ZM30.7005 10.2H47.3672C50.6339 10.2 53.4672 12.1 54.8339 14.8333L58.1672 20.6333L63.9339 17.3L55.1339 32L37.9672 32.3L43.7339 28.9667L39.0339 20.8L31.6672 33.6333L17.2005 25.3L23.2005 14.9C24.5672 12.1333 27.4005 10.2 30.7005 10.2ZM16.8339 65.8667L8.50052 51.4333C6.86719 48.6 7.10052 45.2 8.80052 42.6333L12.1339 36.8667L6.36719 33.5333L23.5005 33.8L32.3339 48.5333L26.5672 45.2L21.8672 53.3333H36.6672V70H24.6672C23.1055 70.113 21.5435 69.7856 20.1587 69.0549C18.774 68.3242 17.622 67.2196 16.8339 65.8667Z" fill="#184D42"/>
</svg>
